<svg width="687" height="452" viewBox="0 0 687 452" fill="none" xmlns="http://www.w3.org/2000/svg">
<path d="M379.512 180.001C372.477 179.904 362.865 184.837 357.186 188.969C353.052 191.924 348.09 193.513 343 193.513C337.91 193.513 332.948 191.924 328.814 188.969C323.135 184.837 313.523 179.904 306.488 180.001C281.156 180.001 267.003 199.557 275.447 241.57C283.891 283.584 283.891 334 309.223 334C334.556 334 326.112 277.198 343 277.198C359.888 277.198 351.444 334 376.777 334C402.109 334 402.109 283.584 410.553 241.57C418.997 199.557 404.844 180.001 379.512 180.001Z" stroke="black" stroke-width="7" stroke-linecap="round" stroke-linejoin="round"/>
<mask id="mask0_1_123" style="mask-type:alpha" maskUnits="userSpaceOnUse" x="162" y="40" width="361" height="374">
<path d="M342.369 127.659C342.369 91.2361 359.657 39.5143 441.547 55.7881C597.527 86.7858 449.047 307.944 369.666 384.003L355.741 396.303C348.178 402.984 336.822 402.984 329.259 396.303L315.334 384.003C235.953 307.944 87.4731 86.7858 243.453 55.7881C325.343 39.5143 342.631 91.2361 342.631 127.659" stroke="black" stroke-width="25" stroke-linecap="round"/>
</mask>
<g mask="url(#mask0_1_123)">
<rect x="156" y="37" width="375" height="52" fill="#FF0000"/>
<rect x="156" y="89" width="375" height="59" fill="#FFA500"/>
<rect x="156" y="148" width="375" height="52" fill="#FFFF00"/>
<rect x="156" y="200" width="375" height="53" fill="#008000"/>
<rect x="156" y="253" width="375" height="52" fill="#0000FF"/>
<rect x="156" y="305" width="375" height="59" fill="#4B0082"/>
<rect x="156" y="364" width="375" height="52" fill="#EE82EE"/>
</g>
<g clip-path="url(#clip0_1_123)">
<path d="M270.638 188.069L267.765 191.114C267.765 191.114 266.299 192.662 268.559 194.795C270.088 196.098 271.444 195.128 271.645 194.915C271.845 194.703 277.496 188.714 277.496 188.714C277.496 188.714 278.964 187.163 277.246 185.412C277.18 185.345 277.252 185.402 277.184 185.336C276.924 185.085 275.56 183.804 275.56 183.804C275.37 183.618 275.296 183.256 275.493 183.048L280.075 178.192C280.142 178.12 280.256 178.111 280.33 178.168L283.893 179.363C285.312 179.892 286.841 179.763 287.674 177.922C288.463 176.179 287.53 175.17 286.611 174.741L275.65 169.79C274.266 169.294 272.675 169.837 271.398 171.19L268.658 174.093L265.088 177.877C261.672 181.497 262.84 188.34 270.597 187.887C270.687 187.917 270.705 187.997 270.638 188.069Z" fill="black"/>
<path d="M281.221 166.25C283.562 163.769 283.536 159.942 281.163 157.703C278.79 155.463 274.968 155.659 272.626 158.14C270.285 160.622 270.311 164.449 272.684 166.688C275.057 168.928 278.879 168.732 281.221 166.25Z" fill="black"/>
</g>
<path d="M313.375 136.812C313.375 140.749 310.298 143.938 306.5 143.938C302.702 143.938 299.625 140.749 299.625 136.812C299.625 132.876 302.702 129.688 306.5 129.688C310.298 129.688 313.375 132.876 313.375 136.812Z" fill="black"/>
<path d="M322.966 155.765L314.028 146.396C312.581 144.878 310.577 143.938 308.356 143.938H304.678H304.675C302.447 143.938 300.429 144.878 298.972 146.396L290.034 155.765C289.292 156.225 288.804 157.055 288.804 158.002C288.804 159.438 289.928 160.603 291.313 160.603C292.227 160.603 293.028 160.097 293.465 159.338L299.625 152.951V176H304.781V161.75H308.219V176H313.375V152.951L319.391 159.363C319.855 159.987 320.573 160.386 321.384 160.386C322.77 160.386 323.894 159.221 323.894 157.785C323.894 156.973 323.533 156.246 322.969 155.769L322.966 155.765Z" fill="black"/>
<path d="M343.845 156.348C346.065 156.348 347.868 154.598 347.868 152.438C347.868 150.278 346.065 148.527 343.845 148.527C341.622 148.527 339.82 150.278 339.82 152.438C339.82 154.598 341.622 156.348 343.845 156.348Z" fill="black"/>
<path d="M350.063 178.508C348.993 182.116 345.571 184.766 341.519 184.766C336.611 184.766 332.621 180.887 332.621 176.119C332.621 172.59 334.811 169.553 337.938 168.21V164.545C332.818 166.044 329.077 170.663 329.077 176.119C329.077 182.786 334.658 188.21 341.518 188.21C346.518 188.21 350.827 185.322 352.803 181.179L351.398 178.497C351.004 178.5 350.547 178.504 350.063 178.508Z" fill="black"/>
<path d="M361.786 183.15L356.396 172.852C355.994 172.081 355.18 171.596 354.291 171.596H347.388V170.066H353.329C353.922 170.066 354.421 169.765 354.743 169.331C354.952 169.048 355.101 168.72 355.101 168.344C355.101 167.393 354.309 166.622 353.329 166.622H349.75H347.388V161.433C347.388 160.006 346.299 157.989 343.845 157.989C341.888 157.989 340.301 159.531 340.301 161.433V172.675C340.301 174.615 341.919 176.188 343.916 176.188H350.412H352.842L357.575 185.232C357.991 186.028 358.821 186.488 359.682 186.488C360.043 186.488 360.409 186.408 360.751 186.237C361.916 185.663 362.379 184.28 361.786 183.15Z" fill="black"/>
<g clip-path="url(#clip1_1_123)">
<path d="M385.329 124.747C385.33 125.718 385.047 126.668 384.516 127.475C383.986 128.283 383.232 128.912 382.35 129.284C381.467 129.656 380.496 129.753 379.559 129.564C378.622 129.375 377.762 128.908 377.086 128.222C376.41 127.535 375.95 126.661 375.764 125.709C375.577 124.756 375.673 123.769 376.038 122.872C376.404 121.975 377.023 121.209 377.817 120.669C378.611 120.13 379.545 119.842 380.5 119.842C381.78 119.842 383.008 120.358 383.914 121.278C384.819 122.198 385.328 123.446 385.329 124.747ZM384.424 132.5H376.576C375.524 132.5 374.502 132.857 373.674 133.515C372.845 134.172 372.256 135.093 372.001 136.13L367.776 153.314C367.72 153.572 367.723 153.84 367.785 154.096C367.846 154.353 367.965 154.592 368.132 154.794C368.335 155.054 368.592 155.265 368.884 155.412C369.176 155.559 369.496 155.64 369.822 155.647C370.179 155.641 370.527 155.529 370.822 155.325C371.117 155.12 371.346 154.833 371.482 154.497L375.417 140.508V150.583L373.073 174.399C373.048 174.654 373.076 174.912 373.154 175.156C373.233 175.399 373.362 175.623 373.531 175.813C373.7 176.004 373.907 176.155 374.138 176.259C374.368 176.363 374.618 176.417 374.87 176.417H375.058C375.467 176.417 375.863 176.271 376.178 176.006C376.493 175.74 376.706 175.371 376.781 174.962L380.5 154.673L384.218 174.962C384.294 175.371 384.507 175.74 384.822 176.006C385.136 176.271 385.533 176.417 385.942 176.417H386.13C386.382 176.417 386.632 176.363 386.862 176.259C387.093 176.155 387.3 176.004 387.469 175.813C387.638 175.623 387.767 175.399 387.845 175.156C387.924 174.912 387.952 174.654 387.927 174.399L385.583 150.583V140.508L389.518 154.497C389.654 154.832 389.884 155.119 390.179 155.323C390.474 155.527 390.821 155.639 391.177 155.644C391.503 155.637 391.824 155.558 392.116 155.411C392.408 155.264 392.665 155.053 392.868 154.794C393.035 154.592 393.154 154.353 393.215 154.096C393.277 153.84 393.28 153.572 393.224 153.314L388.999 136.13C388.744 135.093 388.155 134.172 387.326 133.515C386.497 132.857 385.476 132.5 384.424 132.5Z" fill="black"/>
</g>
<g clip-path="url(#clip2_1_123)">
<path d="M421.508 148.498C419.356 147.656 418.294 145.229 419.136 143.077C419.978 140.926 422.405 139.864 424.556 140.706C426.708 141.547 427.77 143.974 426.928 146.126C426.086 148.278 423.659 149.34 421.508 148.498Z" fill="#010002"/>
<path d="M402.186 156.335C402.426 155.806 403.556 154.739 403.8 154.524C406.592 152.058 409.445 149.654 412.369 147.343C416.796 143.843 422.234 150.723 417.79 154.233C417.66 154.336 417.532 154.442 417.402 154.546C418.213 157.242 420.348 158.963 423.508 159.832C425.449 160.367 425.052 162.684 423.648 163.494L414.786 186.145L413.422 185.611L421.998 163.688C418.163 162.633 415.478 160.358 414.067 157.261C412.482 158.581 410.915 159.924 409.369 161.286L412.976 169.057C413.451 170.08 413.334 171.28 412.675 172.193C410.901 174.649 407.449 179.429 406.5 180.758C404.576 183.45 400.185 180.748 402.117 178.042C403.921 175.514 406.199 172.681 408.005 170.156C408.027 170.125 408.05 170.101 408.072 170.072C408.005 170.156 404.62 163.454 404.62 163.454C402.55 168.032 400.371 172.901 398.44 177.132C397.057 180.154 392.357 178.038 393.743 175.007C396.401 169.181 399.528 162.157 402.186 156.335Z" fill="#010002"/>
</g>
<defs>
<clipPath id="clip0_1_123">
<rect width="35.6274" height="34.0776" fill="white" transform="translate(249.013 176.351) rotate(-46.6616)"/>
</clipPath>
<clipPath id="clip1_1_123">
<rect width="61" height="62" fill="white" transform="translate(350 117)"/>
</clipPath>
<clipPath id="clip2_1_123">
<rect width="45.8756" height="45.8756" fill="white" transform="matrix(-0.931265 -0.364343 -0.364343 0.931265 442.085 147.563)"/>
</clipPath>
</defs>
</svg>
